{
	"asset":{
		"generator":"Khronos glTF Blender I/O v4.3.47",
		"version":"2.0"
	},
	"scene":0,
	"scenes":[
		{
			"name":"Scene",
			"nodes":[
				0,
				1
			]
		}
	],
	"nodes":[
		{
			"mesh":0,
			"name":"quello intero fatto bene",
			"rotation":[
				0.44890931248664856,
				0.5246299505233765,
				-0.5035082697868347,
				0.5193490386009216
			],
			"scale":[
				0.06005449965596199,
				0.06005450710654259,
				0.06005449965596199
			],
			"translation":[
				-2.3478755950927734,
				24.889137268066406,
				-7.430583953857422
			]
		},
		{
			"mesh":1,
			"name":"Cube",
			"rotation":[
				0,
				1,
				0,
				0
			],
			"scale":[
				-7.5817694664001465,
				-0.18118737637996674,
				-7.5817694664001465
			],
			"translation":[
				0,
				0.24318552017211914,
				-38.0363883972168
			]
		}
	],
	"materials":[
		{
			"doubleSided":true,
			"name":"Material.001",
			"pbrMetallicRoughness":{
				"metallicFactor":0,
				"roughnessFactor":0.5
			}
		},
		{
			"doubleSided":true,
			"name":"Material.003",
			"pbrMetallicRoughness":{
				"baseColorFactor":[
					0.08866970241069794,
					0.09202483296394348,
					0.08950237184762955,
					1
				],
				"roughnessFactor":0.5
			}
		},
		{
			"doubleSided":true,
			"emissiveFactor":[
				1,
				1,
				1
			],
			"emissiveTexture":{
				"index":0
			},
			"name":"Material.004",
			"pbrMetallicRoughness":{
				"baseColorFactor":[
					0,
					0,
					0,
					1
				]
			}
		}
	],
	"meshes":[
		{
			"name":"quello intero fatto bene",
			"primitives":[
				{
					"attributes":{
						"POSITION":0,
						"NORMAL":1,
						"COLOR_0":2
					},
					"indices":3,
					"material":0
				}
			]
		},
		{
			"name":"Cube.001",
			"primitives":[
				{
					"attributes":{
						"POSITION":4,
						"NORMAL":5,
						"TEXCOORD_0":6
					},
					"indices":7,
					"material":1
				},
				{
					"attributes":{
						"POSITION":8,
						"NORMAL":9,
						"TEXCOORD_0":10
					},
					"indices":11,
					"material":2
				}
			]
		}
	],
	"textures":[
		{
			"sampler":0,
			"source":0
		}
	],
	"images":[
		{
			"mimeType":"image/jpeg",
			"name":"3e664509bbd6aa29b20eea630526484f",
			"uri":"3e664509bbd6aa29b20eea630526484f.jpg"
		}
	],
	"accessors":[
		{
			"bufferView":0,
			"componentType":5126,
			"count":72215,
			"max":[
				208.8582305908203,
				265.68841552734375,
				449.0296936035156
			],
			"min":[
				-508.4476318359375,
				-241.77911376953125,
				-676.603515625
			],
			"type":"VEC3"
		},
		{
			"bufferView":1,
			"componentType":5126,
			"count":72215,
			"type":"VEC3"
		},
		{
			"bufferView":2,
			"componentType":5126,
			"count":72215,
			"type":"VEC3"
		},
		{
			"bufferView":3,
			"componentType":5125,
			"count":431718,
			"type":"SCALAR"
		},
		{
			"bufferView":4,
			"componentType":5126,
			"count":312,
			"max":[
				1.1075127124786377,
				1,
				1.1891145706176758
			],
			"min":[
				-1.07541024684906,
				-195.33741760253906,
				-1.1891443729400635
			],
			"type":"VEC3"
		},
		{
			"bufferView":5,
			"componentType":5126,
			"count":312,
			"type":"VEC3"
		},
		{
			"bufferView":6,
			"componentType":5126,
			"count":312,
			"type":"VEC2"
		},
		{
			"bufferView":7,
			"componentType":5123,
			"count":582,
			"type":"SCALAR"
		},
		{
			"bufferView":8,
			"componentType":5126,
			"count":4,
			"max":[
				1.1075127124786377,
				-152.86769104003906,
				1.1891145706176758
			],
			"min":[
				-1.0433080196380615,
				-195.33741760253906,
				-1.1891443729400635
			],
			"type":"VEC3"
		},
		{
			"bufferView":9,
			"componentType":5126,
			"count":4,
			"type":"VEC3"
		},
		{
			"bufferView":10,
			"componentType":5126,
			"count":4,
			"type":"VEC2"
		},
		{
			"bufferView":11,
			"componentType":5123,
			"count":6,
			"type":"SCALAR"
		}
	],
	"bufferViews":[
		{
			"buffer":0,
			"byteLength":866580,
			"byteOffset":0,
			"target":34962
		},
		{
			"buffer":0,
			"byteLength":866580,
			"byteOffset":866580,
			"target":34962
		},
		{
			"buffer":0,
			"byteLength":866580,
			"byteOffset":1733160,
			"target":34962
		},
		{
			"buffer":0,
			"byteLength":1726872,
			"byteOffset":2599740,
			"target":34963
		},
		{
			"buffer":0,
			"byteLength":3744,
			"byteOffset":4326612,
			"target":34962
		},
		{
			"buffer":0,
			"byteLength":3744,
			"byteOffset":4330356,
			"target":34962
		},
		{
			"buffer":0,
			"byteLength":2496,
			"byteOffset":4334100,
			"target":34962
		},
		{
			"buffer":0,
			"byteLength":1164,
			"byteOffset":4336596,
			"target":34963
		},
		{
			"buffer":0,
			"byteLength":48,
			"byteOffset":4337760,
			"target":34962
		},
		{
			"buffer":0,
			"byteLength":48,
			"byteOffset":4337808,
			"target":34962
		},
		{
			"buffer":0,
			"byteLength":32,
			"byteOffset":4337856,
			"target":34962
		},
		{
			"buffer":0,
			"byteLength":12,
			"byteOffset":4337888,
			"target":34963
		}
	],
	"samplers":[
		{
			"magFilter":9729,
			"minFilter":9987
		}
	],
	"buffers":[
		{
			"byteLength":4337900,
			"uri":"bustotag.bin"
		}
	]
}
