{
	"asset":{
		"generator":"Khronos glTF Blender I/O v4.3.47",
		"version":"2.0"
	},
	"scene":0,
	"scenes":[
		{
			"name":"Scene",
			"nodes":[
				0
			]
		}
	],
	"nodes":[
		{
			"mesh":0,
			"name":"quello intero fatto bene",
			"rotation":[
				0.44890931248664856,
				0.5246299505233765,
				-0.5035082697868347,
				0.5193490386009216
			],
			"scale":[
				0.003,
				0.003,
				0.003
			],
			"translation":[
				-2.3478755950927734,
				24.889137268066406,
				-7.430583953857422
			]
		}
	],
	"materials":[
		{
			"doubleSided":true,
			"name":"Material.001",
			"pbrMetallicRoughness":{
				"metallicFactor":0,
				"roughnessFactor":0.5
			}
		}
	],
	"meshes":[
		{
			"name":"quello intero fatto bene",
			"primitives":[
				{
					"attributes":{
						"POSITION":0,
						"NORMAL":1,
						"COLOR_0":2
					},
					"indices":3,
					"material":0
				}
			]
		}
	],
	"accessors":[
		{
			"bufferView":0,
			"componentType":5126,
			"count":72215,
			"max":[
				208.8582305908203,
				265.68841552734375,
				449.0296936035156
			],
			"min":[
				-508.4476318359375,
				-241.77911376953125,
				-676.603515625
			],
			"type":"VEC3"
		},
		{
			"bufferView":1,
			"componentType":5126,
			"count":72215,
			"type":"VEC3"
		},
		{
			"bufferView":2,
			"componentType":5126,
			"count":72215,
			"type":"VEC3"
		},
		{
			"bufferView":3,
			"componentType":5125,
			"count":431718,
			"type":"SCALAR"
		}
	],
	"bufferViews":[
		{
			"buffer":0,
			"byteLength":866580,
			"byteOffset":0,
			"target":34962
		},
		{
			"buffer":0,
			"byteLength":866580,
			"byteOffset":866580,
			"target":34962
		},
		{
			"buffer":0,
			"byteLength":866580,
			"byteOffset":1733160,
			"target":34962
		},
		{
			"buffer":0,
			"byteLength":1726872,
			"byteOffset":2599740,
			"target":34963
		}
	],
	"buffers":[
		{
			"byteLength":4326612,
			"uri":"bustos.bin"
		}
	]
}
