{
	"asset":{
		"generator":"Khronos glTF Blender I/O v4.3.47",
		"version":"2.0"
	},
	"scene":0,
	"scenes":[
		{
			"name":"Scene",
			"nodes":[
				0,
				1,
				2
			]
		}
	],
	"nodes":[
		{
			"mesh":0,
			"name":"quello intero fatto bene",
			"rotation":[
				0.44890931248664856,
				0.5246299505233765,
				-0.5035082697868347,
				0.5193490386009216
			],
			"scale":[
				0.000825,
				0.000825,
				0.000825
			],
			"translation":[
				-2.3478755950927734,
				24.889137268066406,
				-7.430583953857422
			]
		},
		{
			"mesh":1,
			"name":"Text",
			"rotation":[
				0.3955930173397064,
				0.5860941410064697,
				-0.3955930173397064,
				0.5860940217971802
			],
			"scale":[
				12.728791236877441,
				12.728789329528809,
				12.728789329528809
			],
			"translation":[
				-3.5658750534057617,
				54.08882141113281,
				-24.87580108642578
			]
		},
		{
			"mesh":2,
			"name":"Text.001",
			"rotation":[
				0.3955930173397064,
				0.5860941410064697,
				-0.3955930173397064,
				0.5860940217971802
			],
			"scale":[
				12.728791236877441,
				12.728789329528809,
				12.728789329528809
			],
			"translation":[
				-3.5658750534057617,
				47.209476470947266,
				-24.87580108642578
			]
		}
	],
	"materials":[
		{
			"doubleSided":true,
			"name":"Material.001",
			"pbrMetallicRoughness":{
				"metallicFactor":0,
				"roughnessFactor":0.5
			}
		},
		{
			"doubleSided":true,
			"name":"Material.006",
			"pbrMetallicRoughness":{
				"baseColorFactor":[
					0,
					0,
					0,
					1
				],
				"metallicFactor":0,
				"roughnessFactor":0.5
			}
		}
	],
	"meshes":[
		{
			"name":"quello intero fatto bene",
			"primitives":[
				{
					"attributes":{
						"POSITION":0,
						"NORMAL":1,
						"COLOR_0":2
					},
					"indices":3,
					"material":0
				}
			]
		},
		{
			"name":"Text",
			"primitives":[
				{
					"attributes":{
						"POSITION":4,
						"NORMAL":5,
						"TEXCOORD_0":6
					},
					"indices":7,
					"material":0
				}
			]
		},
		{
			"name":"Text.001",
			"primitives":[
				{
					"attributes":{
						"POSITION":8,
						"NORMAL":9,
						"TEXCOORD_0":10
					},
					"indices":11,
					"material":1
				}
			]
		}
	],
	"accessors":[
		{
			"bufferView":0,
			"componentType":5126,
			"count":72215,
			"max":[
				208.8582305908203,
				265.68841552734375,
				449.0296936035156
			],
			"min":[
				-508.4476318359375,
				-241.77911376953125,
				-676.603515625
			],
			"type":"VEC3"
		},
		{
			"bufferView":1,
			"componentType":5126,
			"count":72215,
			"type":"VEC3"
		},
		{
			"bufferView":2,
			"componentType":5126,
			"count":72215,
			"type":"VEC3"
		},
		{
			"bufferView":3,
			"componentType":5125,
			"count":431718,
			"type":"SCALAR"
		},
		{
			"bufferView":4,
			"componentType":5126,
			"count":1423,
			"max":[
				2.339480400085449,
				0,
				0.5412000417709351
			],
			"min":[
				0.032120004296302795,
				0,
				-0.3000800311565399
			],
			"type":"VEC3"
		},
		{
			"bufferView":5,
			"componentType":5126,
			"count":1423,
			"type":"VEC3"
		},
		{
			"bufferView":6,
			"componentType":5126,
			"count":1423,
			"type":"VEC2"
		},
		{
			"bufferView":7,
			"componentType":5123,
			"count":4200,
			"type":"SCALAR"
		},
		{
			"bufferView":8,
			"componentType":5126,
			"count":5484,
			"max":[
				1.491580605506897,
				0,
				0.6851001381874084
			],
			"min":[
				0.006970002315938473,
				0,
				0.02006000094115734
			],
			"type":"VEC3"
		},
		{
			"bufferView":9,
			"componentType":5126,
			"count":5484,
			"type":"VEC3"
		},
		{
			"bufferView":10,
			"componentType":5126,
			"count":5484,
			"type":"VEC2"
		},
		{
			"bufferView":11,
			"componentType":5123,
			"count":16188,
			"type":"SCALAR"
		}
	],
	"bufferViews":[
		{
			"buffer":0,
			"byteLength":866580,
			"byteOffset":0,
			"target":34962
		},
		{
			"buffer":0,
			"byteLength":866580,
			"byteOffset":866580,
			"target":34962
		},
		{
			"buffer":0,
			"byteLength":866580,
			"byteOffset":1733160,
			"target":34962
		},
		{
			"buffer":0,
			"byteLength":1726872,
			"byteOffset":2599740,
			"target":34963
		},
		{
			"buffer":0,
			"byteLength":17076,
			"byteOffset":4326612,
			"target":34962
		},
		{
			"buffer":0,
			"byteLength":17076,
			"byteOffset":4343688,
			"target":34962
		},
		{
			"buffer":0,
			"byteLength":11384,
			"byteOffset":4360764,
			"target":34962
		},
		{
			"buffer":0,
			"byteLength":8400,
			"byteOffset":4372148,
			"target":34963
		},
		{
			"buffer":0,
			"byteLength":65808,
			"byteOffset":4380548,
			"target":34962
		},
		{
			"buffer":0,
			"byteLength":65808,
			"byteOffset":4446356,
			"target":34962
		},
		{
			"buffer":0,
			"byteLength":43872,
			"byteOffset":4512164,
			"target":34962
		},
		{
			"buffer":0,
			"byteLength":32376,
			"byteOffset":4556036,
			"target":34963
		}
	],
	"buffers":[
		{
			"byteLength":4588412,
			"uri":"bustotext.bin"
		}
	]
}
